<svg width="52" height="46" viewBox="0 0 52 46" fill="none" xmlns="http://www.w3.org/2000/svg">
<path d="M52 11.3453L34.2907 0.930237L32.359 2.22252V4.7043L34.3663 3.36367L48.1223 11.4554L41.6947 15.7385L35.542 12.1224L34.1327 13.6897L39.6943 16.9552L26 25.0054L12.3057 16.9552L17.8673 13.6897L16.458 12.1224L10.3053 15.7385L3.87725 11.4554L17.6333 3.36367L19.6406 4.7043V2.22252L17.7088 0.930237L0 11.3453L8.40775 16.9552L0 22.5651L8.51094 27.5697V35.2762L24.9689 45.1688V27.6729L26 27.1021L27.0311 27.6725V45.1684L43.4891 35.2762V27.5697L52 22.5651L43.5923 16.9552L52 11.3453ZM17.6337 30.5463L3.87725 22.455L10.3049 18.1719L24.061 26.2563L17.6337 30.5463ZM48.1227 22.455L34.3663 30.5463L27.9386 26.2563L41.6947 18.1719L48.1227 22.455Z" fill="#252E79"/>
<path d="M17.4604 9.51152L26 19L34.5396 9.51188H30.0568V0.109558H21.9432V9.51152H17.4604Z" fill="#E94921"/>
</svg>
