<svg width="48" height="47" viewBox="0 0 48 47" fill="none" xmlns="http://www.w3.org/2000/svg">
<path d="M47.9951 19.956C47.9374 18.9082 47.1536 13.2157 46.3616 11.2275L46.1801 10.7902L45.7181 10.7242C44.4889 10.5427 43.0534 11.4667 42.0469 13.0755C41.0321 14.709 40.8341 16.5157 41.4446 18.5865L40.6691 21.4905C39.9514 21.5235 39.1924 21.837 38.5159 22.5135L35.1334 25.896C34.9189 26.0857 33.6896 26.7787 32.6996 27.3397C30.5794 28.5442 29.1439 29.3775 28.6406 29.8807C27.5186 30.9945 27.2216 33.123 27.2216 34.212V39.0382H26.3966V46.4632H39.5966V39.0382H38.2849C38.2931 38.3617 38.3921 37.9657 38.7551 37.5862C39.2254 37.1077 42.0716 34.2862 44.2826 32.0835C45.5614 30.8047 46.6339 29.7405 46.9061 29.4682L47.0629 29.3115L47.1206 29.1052C47.4424 27.9667 48.0611 21.0945 47.9951 19.956ZM30.1091 44.244C29.5151 44.244 29.0284 43.7572 29.0284 43.1632C29.0284 42.5692 29.5151 42.0825 30.1091 42.0825C30.7031 42.0825 31.1899 42.5692 31.1899 43.1632C31.1899 43.7572 30.7031 44.244 30.1091 44.244ZM45.5779 28.4617C45.1571 28.8825 44.2166 29.823 43.1194 30.912C40.9001 33.1147 38.0539 35.9527 37.5836 36.4312C36.7999 37.2232 36.6431 38.106 36.6266 39.0382H28.8716V34.212C28.8716 33.1147 29.2181 31.6297 29.8039 31.044C30.1916 30.6645 32.1881 29.526 33.5164 28.7752C35.3066 27.7605 36.0079 27.348 36.2884 27.0757L39.6791 23.6767C40.5041 22.86 41.3126 23.0827 41.7911 23.5612C42.1871 23.9572 42.6244 24.8647 41.7416 25.7392L36.9896 30.4995L38.1529 31.6627L42.9131 26.9107C44.3899 25.4257 44.0434 23.4787 42.9626 22.398C42.7564 22.1917 42.5254 22.0185 42.2779 21.8782L43.1606 18.5452L43.0864 18.3142C42.5419 16.6147 42.6574 15.2205 43.4494 13.9417C44.0021 13.059 44.5961 12.6052 45.0251 12.432C45.6604 14.5687 46.2956 19.1062 46.3451 20.055C46.3946 20.946 45.8666 27.0262 45.5779 28.4617ZM20.6216 39.0382V34.212C20.6216 33.7087 20.5556 31.1595 19.2769 29.8807C18.7736 29.3775 17.3629 28.5525 15.2674 27.348C14.2939 26.787 13.0811 26.0857 12.8749 25.9042L9.48414 22.5135C8.76639 21.7957 7.96614 21.4905 7.20714 21.4905L6.54714 18.603C7.16589 16.524 6.96789 14.709 5.94489 13.0755C4.94664 11.4667 3.50289 10.5427 2.28189 10.7242L1.81164 10.7902L1.63839 11.2275C0.838136 13.2157 0.0626355 18.9082 0.0048855 19.956C-0.0611145 21.0945 0.549386 27.9667 0.879386 29.1052L0.937136 29.3115L1.08564 29.4682C1.35789 29.7322 2.38914 30.7635 3.64314 32.0092C5.86239 34.2202 8.76639 37.1077 9.23664 37.5862C9.60789 37.9657 9.70689 38.3617 9.71514 39.0382H8.24664V46.4632H21.4466V39.0382H20.6216ZM17.7341 44.244C17.1401 44.244 16.6534 43.7572 16.6534 43.1632C16.6534 42.5692 17.1401 42.0825 17.7341 42.0825C18.3281 42.0825 18.8149 42.5692 18.8149 43.1632C18.8149 43.7572 18.3281 44.244 17.7341 44.244ZM18.9716 39.0382H11.3651C11.3569 38.106 11.2001 37.2232 10.4164 36.4312C9.93789 35.9445 7.02564 33.0487 4.80639 30.8377C3.74214 29.7735 2.82639 28.8742 2.42214 28.4617C2.13339 27.018 1.59714 20.946 1.64664 20.055C1.70439 19.1062 2.33964 14.5687 2.96664 12.432C3.40389 12.6052 3.99789 13.059 4.55064 13.9417C5.34264 15.2205 5.45814 16.6147 4.90539 18.3142L4.83939 18.537L5.61489 21.9442C5.40039 22.068 5.21064 22.2247 5.03739 22.398C3.95664 23.4787 3.60189 25.4257 5.08689 26.9107L9.83889 31.6627L11.0104 30.4995L6.25014 25.7392C5.37564 24.8647 5.80464 23.9572 6.20064 23.5612C6.68739 23.0827 7.49589 22.86 8.31264 23.6767L11.7116 27.0757C11.9839 27.348 12.6769 27.7605 14.4506 28.7752C15.7541 29.526 17.7259 30.6562 18.1136 31.044C18.6746 31.6132 18.9716 33.0652 18.9716 34.212V39.0382Z" fill="#252E79"/>
<path d="M23.9595 12.3154L34.3612 6.29025L23.9216 0L13.482 6.29025L23.9595 12.3154Z" fill="#E94921"/>
<path d="M22.9744 25.9759L23.0123 13.9541L12.5539 7.93875V19.9414L22.9744 25.9759Z" fill="#252E79"/>
<path d="M35.2898 19.9414V7.93875L24.9068 13.9639L24.8689 25.9759L35.2898 19.9414Z" fill="#252E79"/>
</svg>
