<svg width="48" height="48" viewBox="0 0 48 48" fill="none" xmlns="http://www.w3.org/2000/svg">
<path d="M31.02 13.7025V18.75C31.019 19.8432 30.6694 20.9075 30.022 21.7883C29.3745 22.6691 28.463 23.3204 27.42 23.6475C26.9209 23.8085 26.3994 23.8895 25.875 23.8875H22.5375C21.943 23.891 21.353 23.7842 20.7975 23.5725C19.8026 23.2178 18.9418 22.5639 18.3335 21.7004C17.7252 20.8369 17.3991 19.8063 17.4 18.75V13.7025H31.02Z" stroke="#252E79" stroke-width="2" stroke-linecap="round" stroke-linejoin="round"/>
<path d="M31.56 10.425V13.7025H16.8525V10.425H21.9525L22.41 11.85H25.875L26.34 10.425H31.56Z" stroke="#252E79" stroke-width="2" stroke-linecap="round" stroke-linejoin="round"/>
<path d="M27.5325 17.8875H20.88C20.3182 17.8877 19.7701 17.7141 19.3109 17.3905C18.8517 17.0669 18.5038 16.6091 18.315 16.08L17.4675 13.7025H30.9675L30.12 16.08C29.9299 16.6128 29.5786 17.0731 29.1149 17.397C28.6512 17.7209 28.0981 17.8924 27.5325 17.8875V17.8875Z" stroke="#252E79" stroke-width="2" stroke-linecap="round" stroke-linejoin="round"/>
<path d="M33.3975 9.13501L31.56 10.425H26.31L26.9175 8.56501L24.1425 6.53251L21.345 8.56501L21.945 10.425H16.8525L15 9.13501C14.8569 9.03437 14.7457 8.89483 14.6794 8.73291C14.6132 8.571 14.5948 8.39349 14.6264 8.22143C14.658 8.04937 14.7382 7.88996 14.8576 7.7621C14.977 7.63424 15.1305 7.54328 15.3 7.50001H15.4125C16.2791 7.09093 17.0218 6.45949 17.565 5.67001L18.5925 4.17001L19.83 4.32751C20.5124 4.40332 21.2032 4.33719 21.8589 4.13326C22.5145 3.92933 23.1209 3.59202 23.64 3.14251L24.21 2.66251L24.7725 3.14251C25.2927 3.59261 25.9004 3.93024 26.5573 4.13417C27.2143 4.3381 27.9064 4.40393 28.59 4.32751L29.8275 4.17001L30.8475 5.67001C31.3925 6.45782 32.1347 7.08883 33 7.50001H33.1125C33.2809 7.54523 33.4329 7.63765 33.5506 7.76638C33.6683 7.8951 33.7467 8.05477 33.7766 8.22658C33.8066 8.39839 33.7868 8.57518 33.7196 8.73612C33.6525 8.89706 33.5407 9.03546 33.3975 9.13501V9.13501Z" stroke="#252E79" stroke-width="2" stroke-linecap="round" stroke-linejoin="round"/>
<path d="M31.0125 14.6025H32.295C32.4595 14.6025 32.6223 14.6349 32.7743 14.6978C32.9263 14.7608 33.0643 14.853 33.1806 14.9693C33.297 15.0856 33.3892 15.2237 33.4522 15.3757C33.5151 15.5276 33.5475 15.6905 33.5475 15.855V16.605C33.5475 16.9372 33.4155 17.2558 33.1806 17.4906C32.9458 17.7255 32.6272 17.8575 32.295 17.8575H31.0125V14.6025Z" stroke="#252E79" stroke-width="2" stroke-linecap="round" stroke-linejoin="round"/>
<path d="M17.4 17.8875H16.1175C15.953 17.8875 15.7901 17.8551 15.6382 17.7922C15.4862 17.7292 15.3481 17.637 15.2318 17.5206C15.1155 17.4043 15.0233 17.2663 14.9603 17.1143C14.8974 16.9623 14.865 16.7995 14.865 16.635V15.885C14.865 15.5528 14.997 15.2342 15.2318 14.9993C15.4667 14.7645 15.7853 14.6325 16.1175 14.6325H17.4V17.8875Z" stroke="#252E79" stroke-width="2" stroke-linecap="round" stroke-linejoin="round"/>
<path d="M17.1825 25.4325V27H15.5625C14.0657 27.0022 12.6179 27.5335 11.475 28.5V25.4325C11.474 25.3081 11.4978 25.1848 11.5449 25.0697C11.592 24.9546 11.6616 24.85 11.7496 24.7621C11.8375 24.6741 11.9421 24.6045 12.0572 24.5574C12.1723 24.5103 12.2956 24.4865 12.42 24.4875H16.245C16.3688 24.4875 16.4913 24.512 16.6055 24.5596C16.7197 24.6072 16.8234 24.6769 16.9106 24.7647C16.9977 24.8526 17.0666 24.9568 17.1133 25.0714C17.16 25.186 17.1835 25.3088 17.1825 25.4325Z" fill="#E94921" stroke="#252E79" stroke-width="2" stroke-linecap="round" stroke-linejoin="round"/>
<path d="M36.945 25.4325V28.6425C35.7722 27.5801 34.2449 26.9943 32.6625 27H31.23V25.4325C31.23 25.1832 31.3285 24.9439 31.5041 24.7669C31.6797 24.5899 31.9182 24.4895 32.1675 24.4875H36C36.2506 24.4875 36.491 24.5871 36.6682 24.7643C36.8454 24.9415 36.945 25.1819 36.945 25.4325Z" fill="#E94921" stroke="#252E79" stroke-width="2" stroke-linecap="round" stroke-linejoin="round"/>
<path d="M27.615 26.9925H27.225L27.42 26.7975L27.615 26.9925Z" stroke="#252E79" stroke-width="2" stroke-linecap="round" stroke-linejoin="round"/>
<path d="M20.9925 26.9925H20.6025L20.7975 26.7975L20.9925 26.9925Z" stroke="#252E79" stroke-width="2" stroke-linecap="round" stroke-linejoin="round"/>
<path d="M39 33.3375V45.3375H9.21V33.3375C9.209 32.5037 9.37275 31.6779 9.69182 30.9076C10.0109 30.1373 10.479 29.4376 11.0693 28.8487C11.6596 28.2598 12.3604 27.7933 13.1315 27.4761C13.9025 27.1588 14.7287 26.997 15.5625 27H20.6025L19.0425 28.56L20.7975 30.81L21.6075 31.86L22.0275 31.56L24.1125 30.105L26.1975 31.56L26.6175 31.86L27.42 30.8175L29.1825 28.5675L27.615 27H32.6625C33.4953 26.998 34.3203 27.1606 35.0901 27.4784C35.8599 27.7962 36.5593 28.2629 37.1482 28.8518C37.7371 29.4407 38.2038 30.1401 38.5216 30.9099C38.8394 31.6797 39.002 32.5047 39 33.3375V33.3375Z" stroke="#252E79" stroke-width="2" stroke-linecap="round" stroke-linejoin="round"/>
<path d="M29.1825 28.5525L27.42 30.825L26.6175 31.8675L26.1975 31.5675L24.1125 30.1125L25.8825 28.3425L27.225 26.9925H27.615L29.1825 28.5525Z" stroke="#252E79" stroke-width="2" stroke-linecap="round" stroke-linejoin="round"/>
<path d="M24.1125 30.1125L22.035 31.5675L21.6 31.8675L20.7975 30.8175L19.0425 28.5525L20.6025 26.9925H20.9925L22.3425 28.3425L24.1125 30.1125Z" stroke="#252E79" stroke-width="2" stroke-linecap="round" stroke-linejoin="round"/>
<path d="M27.42 23.61V27H27.225L25.8825 28.35L24.1125 30.12L22.3425 28.35L21 27H20.805V23.535C21.3605 23.7467 21.9505 23.8535 22.545 23.85H25.875C26.3994 23.852 26.9209 23.771 27.42 23.61V23.61Z" stroke="#252E79" stroke-width="2" stroke-linecap="round" stroke-linejoin="round"/>
<path d="M26.1975 31.5675L25.2075 32.5575L24.1125 33.645L23.0175 32.5575L22.035 31.5675L24.1125 30.1125L26.1975 31.5675Z" stroke="#252E79" stroke-width="2" stroke-linecap="round" stroke-linejoin="round"/>
<path d="M26.67 45.3525H21.63L23.0175 32.5575L24.1125 33.645L25.2075 32.5575L26.67 45.3525Z" stroke="#252E79" stroke-width="2" stroke-linecap="round" stroke-linejoin="round"/>
<path d="M14.6175 39.2025V45.3525" stroke="#252E79" stroke-width="2" stroke-linecap="round" stroke-linejoin="round"/>
<path d="M34.0875 39.2025V45.3525" stroke="#252E79" stroke-width="2" stroke-linecap="round" stroke-linejoin="round"/>
<path d="M31.9875 35.2725H27.7425V37.6725H31.9875V35.2725Z" fill="#E94921" stroke="#252E79" stroke-width="2" stroke-linecap="round" stroke-linejoin="round"/>
<path d="M20.475 35.2725H16.23V37.6725H20.475V35.2725Z" fill="#E94921" stroke="#252E79" stroke-width="2" stroke-linecap="round" stroke-linejoin="round"/>
<path d="M29 7.75784L27.9276 10.5561L27.0965 12.7H20.9035L20.0858 10.5561L19 7.75784L24 4.70001L29 7.75784Z" fill="white"/>
<path d="M26.94 8.565L26.34 10.425L25.875 11.85H22.41L21.9525 10.425L21.345 8.565L24.1425 6.5325L26.94 8.565Z" fill="#E94921"/>
</svg>
