<svg width="43" height="42" viewBox="0 0 43 42" fill="none" xmlns="http://www.w3.org/2000/svg">
<path d="M8.32776 38.0147C7.1927 38.0147 6.13332 37.6364 5.35138 36.8544C4.8469 36.3499 4.87213 35.568 5.35138 35.0635C5.85585 34.5591 6.63779 34.5843 7.14226 35.0635C7.89897 35.8202 9.51328 35.568 10.724 34.4834L38.672 8.95694C39.1764 8.50291 39.4791 7.82187 39.5043 7.03994C39.5295 5.98054 39.0755 4.89592 38.2431 4.06353C37.7639 3.55906 37.7639 2.77712 38.2431 2.27265C38.7476 1.7934 39.5296 1.7934 40.034 2.27265C41.3457 3.58428 42.0771 5.34995 42.0267 7.11561C41.9762 8.60381 41.3961 9.91545 40.3619 10.8487L12.414 36.3752C11.1781 37.4598 9.71507 38.0147 8.32776 38.0147Z" fill="#252E79"/>
<path d="M6.05764 37.0309C5.72973 37.0309 5.40182 36.9048 5.17481 36.6526C3.43437 34.9374 3.66139 31.8348 5.65407 29.6151L31.1805 1.64199C32.0886 0.633042 33.4254 0.0276716 34.8884 0.00244783C36.6541 -0.0479997 38.3945 0.683488 39.7314 1.99512C40.2358 2.47437 40.2358 3.28154 39.7314 3.78601C39.2521 4.29049 38.445 4.29049 37.9405 3.78601C37.1081 2.95363 36.0235 2.4996 34.9641 2.52482C34.1821 2.55005 33.5011 2.82751 33.0471 3.33199L7.52063 31.3051C6.43601 32.4907 6.18375 34.105 6.96569 34.8617C7.47017 35.3662 7.47017 36.1481 6.96569 36.6526C6.71345 36.9048 6.38555 37.0309 6.05764 37.0309Z" fill="#252E79"/>
<path d="M31.4075 41.9999C30.5751 41.9999 29.8184 41.5963 29.3392 40.8901L20.6118 27.8242C20.2334 27.244 20.3847 26.4621 20.9649 26.0837C21.545 25.7054 22.3269 25.8567 22.7053 26.4368L31.4075 39.4775L30.3986 17.205C30.3733 16.4987 30.903 15.9185 31.6093 15.8933C32.3156 15.8681 32.8957 16.3978 32.9209 17.1041L33.9299 39.4019C33.9803 40.5369 33.2993 41.5459 32.1894 41.899C31.9372 41.9747 31.6597 41.9999 31.4075 41.9999Z" fill="#252E79"/>
<path d="M32.593 26.1847C32.2651 26.1847 31.9372 26.0586 31.7102 25.8064C31.2057 25.3019 31.2057 24.52 31.7102 24.0155L34.7118 21.0139C35.2163 20.5094 35.9982 20.5094 36.5027 21.0139C37.0072 21.5183 37.0072 22.3003 36.5027 22.8047L33.5011 25.8064C33.2236 26.0586 32.9209 26.1847 32.593 26.1847Z" fill="#252E79"/>
<path d="M14.886 21.6192C14.6337 21.6192 14.4067 21.5436 14.1797 21.4174L1.1138 12.69C0.1553 12.0594 -0.223063 10.8991 0.13007 9.81451C0.483202 8.72989 1.49216 8.02362 2.62723 8.07407L24.925 9.08302C25.6313 9.10824 26.161 9.71362 26.1358 10.3947C26.1105 11.1009 25.5052 11.6306 24.8241 11.6054L2.55154 10.5964L15.5922 19.2986C16.1724 19.677 16.3237 20.4589 15.9454 21.0391C15.6931 21.4174 15.2895 21.6192 14.886 21.6192Z" fill="#252E79"/>
<path d="M17.3579 10.9496C17.03 10.9496 16.7021 10.8235 16.4751 10.5713C15.9706 10.0668 15.9706 9.28485 16.4751 8.78037L19.4767 5.77875C19.9812 5.27427 20.7631 5.27427 21.2676 5.77875C21.7721 6.28322 21.7721 7.06516 21.2676 7.56964L18.2659 10.5713C18.0137 10.8235 17.6858 10.9496 17.3579 10.9496Z" fill="#252E79"/>
<path d="M14.4572 41.6469C13.7761 41.6469 13.0951 41.3695 12.5906 40.865L9.81598 38.0904C9.3115 37.5859 9.3115 36.804 9.81598 36.2995C10.3205 35.795 11.1024 35.795 11.6069 36.2995L14.3815 39.0741C14.4067 39.0993 14.4319 39.1245 14.5076 39.0993C14.5833 39.0741 14.5833 39.0236 14.5833 38.9984L14.4572 32.5916C14.4572 31.8853 14.9869 31.3304 15.6931 31.3052C16.3994 31.3052 16.9543 31.8349 16.9795 32.5411L17.1056 38.948C17.1309 40.0326 16.5003 40.9911 15.4913 41.4199C15.1634 41.5965 14.8103 41.6469 14.4572 41.6469Z" fill="#252E79"/>
<path d="M4.79644 32.5664C4.46853 32.5664 4.14062 32.4403 3.91361 32.1881L1.13899 29.4135C0.38228 28.6567 0.155278 27.5217 0.584082 26.5127C1.01289 25.529 1.97137 24.8732 3.05599 24.8984L9.46283 25.0245C10.1691 25.0245 10.724 25.6047 10.6988 26.3109C10.6988 27.0172 10.1187 27.5721 9.4124 27.5469L3.00556 27.4208C2.98033 27.4208 2.92988 27.4208 2.90466 27.4965C2.87943 27.5721 2.90465 27.5973 2.92987 27.6226L5.70449 30.3972C6.20896 30.9017 6.20896 31.6836 5.70449 32.1881C5.45225 32.4403 5.12435 32.5664 4.79644 32.5664Z" fill="#252E79"/>
<path d="M35.7712 9.94058C35.4433 9.94058 35.1154 9.81446 34.8884 9.56222L32.366 7.03985C31.8616 6.53537 31.8616 5.75344 32.366 5.24896C32.8705 4.74449 33.6524 4.74449 34.1569 5.24896L36.6793 7.77134C37.1838 8.27581 37.1838 9.05775 36.6793 9.56222C36.4018 9.81446 36.0991 9.94058 35.7712 9.94058Z" fill="#252E79"/>
</svg>
