<svg width="34" height="42" viewBox="0 0 34 42" fill="none" xmlns="http://www.w3.org/2000/svg">
<path d="M9.23287 32.9537H5.75359C5.05773 32.9537 4.51099 32.407 4.51099 31.7111C4.51099 31.0153 5.05773 30.4685 5.75359 30.4685H9.23287C9.92873 30.4685 10.4755 31.0153 10.4755 31.7111C10.4755 32.407 9.90387 32.9537 9.23287 32.9537Z" fill="#252E79"/>
<path d="M28.1204 32.9537H24.6411C23.9453 32.9537 23.3985 32.407 23.3985 31.7111C23.3985 31.0153 23.9453 30.4685 24.6411 30.4685H28.1204C28.8163 30.4685 29.363 31.0153 29.363 31.7111C29.363 32.407 28.7914 32.9537 28.1204 32.9537Z" fill="#252E79"/>
<path d="M27.1263 37.4271H6.4743C4.63525 37.4271 2.87075 36.607 1.65301 35.2401C0.435257 33.8732 -0.161191 32.0342 0.037625 30.1951L0.808039 21.7951C0.857743 21.3727 1.10627 20.9999 1.47905 20.8011C1.72757 20.6768 2.02579 20.6271 2.29916 20.6768C2.42342 20.7017 2.54768 20.7514 2.67194 20.8259C2.7465 20.8756 2.7962 20.9005 2.87075 20.9502C6.12637 22.8886 9.65536 24.7774 13.408 25.5478C14.5512 25.7715 15.6944 25.8957 16.8376 25.8957C22.0565 25.8957 26.8778 23.2863 30.9784 20.8259C31.3512 20.6022 31.7985 20.6022 32.1713 20.7762C32.5441 20.975 32.8174 21.3478 32.8423 21.7703L33.6127 30.1951C33.8115 32.0093 33.2151 33.8732 31.9973 35.2401C30.7299 36.607 28.9654 37.4271 27.1263 37.4271ZM3.09443 23.9573L2.52283 30.4188C2.39857 31.5868 2.74649 32.73 3.51691 33.575C4.26247 34.42 5.35596 34.9419 6.49915 34.9419H27.1512C28.2944 34.9419 29.363 34.42 30.1334 33.575C30.9038 32.73 31.2518 31.6117 31.1275 30.4685V30.4437L30.531 23.9821C27.176 25.8957 22.1559 28.4058 16.8127 28.4058C15.5204 28.4058 14.2033 28.2567 12.8861 28.0082C9.35713 27.2377 6.10152 25.6969 3.09443 23.9573Z" fill="#252E79"/>
<path d="M16.8127 28.3809C15.5701 28.3809 14.2778 28.2318 12.8861 27.9584C8.53702 27.0638 4.68495 24.9016 1.37963 22.9135C0.95715 22.665 0.733483 22.1928 0.783187 21.6957L2.37372 8.35019C2.72164 5.06973 5.50508 2.60938 8.8104 2.60938H13.408C13.8057 2.60938 14.1536 2.75849 14.4021 3.05672C14.6258 3.35494 14.7252 3.75257 14.6009 4.12535C14.5761 4.24961 14.5264 4.44843 14.5264 4.6721C14.5264 5.9147 15.5204 6.90878 16.7382 6.90878C17.9559 6.90878 18.95 5.88985 18.95 4.6721C18.95 4.44843 18.9252 4.22476 18.8755 4.1005C18.7761 3.72772 18.8506 3.35494 19.0743 3.05672C19.2979 2.75849 19.6707 2.60938 20.0684 2.60938H24.666C27.9962 2.60938 30.7547 5.06973 31.1027 8.35019L32.718 21.7454C32.7677 22.2425 32.5441 22.6898 32.1216 22.9383C29.0648 24.8768 23.15 28.3809 16.8127 28.3809ZM3.3678 21.2235C6.32519 22.9632 9.72992 24.7774 13.3832 25.5478C14.6009 25.7963 15.7193 25.9206 16.7879 25.9206C21.7334 25.9206 26.2814 23.5845 30.2328 21.2484L28.7169 8.67326C28.4932 6.6354 26.7784 5.11943 24.7405 5.11943H21.4849C21.311 7.60463 19.2731 9.49339 16.7879 9.49339C14.3027 9.49339 12.2897 7.60463 12.0909 5.11943H8.83524C6.79738 5.11943 5.08259 6.61055 4.85892 8.64842L3.3678 21.2235Z" fill="#252E79"/>
<path d="M13.1346 28.0082C13.0601 28.0082 12.9607 28.0082 12.8861 27.9834C8.68613 27.1135 4.88377 25.0757 1.37963 22.9881C0.957149 22.7396 0.733483 22.2674 0.783187 21.7703C0.832891 21.3479 1.10627 20.9751 1.47905 20.8011C1.85183 20.6272 2.29916 20.6271 2.67194 20.8508C5.77844 22.7147 9.40684 24.7526 13.3832 25.5727C14.0542 25.7218 14.4767 26.368 14.3524 27.039C14.2281 27.6106 13.7311 28.0082 13.1346 28.0082Z" fill="#252E79"/>
<path d="M20.1678 5.11952C19.621 5.11952 19.0991 4.74674 18.9749 4.17514C18.7263 3.18106 17.8317 2.51006 16.8376 2.51006C15.8435 2.51006 14.9488 3.20591 14.7003 4.17514C14.5264 4.84615 13.8553 5.24377 13.1843 5.06981C12.5133 4.89585 12.1157 4.22485 12.2897 3.55384C12.8116 1.46627 14.7003 0 16.8376 0C18.9749 0 20.8636 1.46627 21.3855 3.55384C21.5595 4.22485 21.1618 4.89585 20.4908 5.06981C20.3666 5.11951 20.2672 5.11952 20.1678 5.11952Z" fill="#252E79"/>
<path d="M16.8127 9.44376C14.2281 9.44376 12.1157 7.33134 12.1157 4.74673C12.1157 4.37395 12.1654 3.97632 12.2648 3.57868C12.4388 2.90768 13.1098 2.51005 13.7808 2.68402C14.4518 2.85798 14.8494 3.52898 14.6755 4.19998C14.6258 4.3988 14.6009 4.57277 14.6009 4.74673C14.6009 5.96448 15.595 6.95856 16.8127 6.95856C18.0305 6.95856 19.0246 5.96448 19.0246 4.74673C19.0246 4.57277 18.9997 4.3988 18.95 4.19998C18.776 3.52898 19.1737 2.85798 19.8447 2.68402C20.5157 2.51005 21.1867 2.90768 21.3607 3.57868C21.4601 3.97632 21.5098 4.3491 21.5098 4.74673C21.5098 7.33134 19.3973 9.44376 16.8127 9.44376Z" fill="#252E79"/>
<path d="M30.034 41.9998C29.6115 41.9998 29.2139 41.801 28.9654 41.4034L26.1074 36.7561C25.7595 36.1596 25.9334 35.4141 26.505 35.0413C27.1015 34.6934 27.847 34.8673 28.2198 35.4389L31.0778 40.0862C31.4257 40.6827 31.2518 41.4283 30.6802 41.801C30.4813 41.9501 30.2577 41.9998 30.034 41.9998Z" fill="#252E79"/>
<path d="M3.56661 41.9999C3.34294 41.9999 3.11927 41.9502 2.92045 41.826C2.32401 41.478 2.15004 40.7076 2.52282 40.1112L5.3808 35.4639C5.72873 34.8674 6.49914 34.6934 7.09559 35.0662C7.69204 35.4141 7.86601 36.1846 7.49323 36.781L4.63524 41.4035C4.38672 41.8011 3.98909 41.9999 3.56661 41.9999Z" fill="#252E79"/>
</svg>
