<svg width="24" height="24" viewBox="0 0 24 24" fill="none" xmlns="http://www.w3.org/2000/svg">
<path fill-rule="evenodd" clip-rule="evenodd" d="M12 24C18.6274 24 24 18.6274 24 12C24 5.37258 18.6274 0 12 0C5.37258 0 0 5.37258 0 12C0 18.6274 5.37258 24 12 24ZM12 22C17.5228 22 22 17.5228 22 12C22 6.47712 17.5228 1.99997 12 1.99997C6.47715 1.99997 2 6.47712 2 12C2 17.5228 6.47715 22 12 22Z" fill="#E94921"/>
<path d="M11.025 16C10.775 16 10.525 15.9 10.325 15.7L6.8 12.175C6.4 11.775 6.4 11.15 6.8 10.75C7.2 10.35 7.82499 10.35 8.22499 10.75L11.025 13.55L16.025 8.55C16.425 8.15 17.05 8.15 17.45 8.55C17.85 8.95 17.85 9.57499 17.45 9.97499L11.75 15.675C11.525 15.9 11.275 16 11.025 16Z" fill="#E94921"/>
</svg>
