<svg width="43" height="42" viewBox="0 0 43 42" fill="none" xmlns="http://www.w3.org/2000/svg">
<path d="M9.32709 38.2812C9.30384 38.2812 9.28059 38.2812 9.25735 38.2812C8.60654 38.2347 8.14169 37.6769 8.18818 37.0494C8.39736 34.144 6.07307 31.657 3.81851 29.2397C2.37744 27.6824 1.00611 26.2181 0.332063 24.6376C-0.156039 23.4755 -0.10955 22.1506 0.494767 21.035C1.09908 19.8961 2.16825 19.0826 3.44661 18.8269H3.46986L21.2042 15.6194C21.8318 15.5031 22.4361 15.9215 22.5523 16.5491C22.6685 17.1766 22.2502 17.781 21.6226 17.8972L3.88823 21.1047C3.30716 21.2209 2.81906 21.5928 2.54014 22.1274C2.26123 22.6387 2.23799 23.2198 2.47042 23.7544C2.98176 24.9398 4.21363 26.2646 5.51524 27.6825C7.97899 30.3321 10.7682 33.3305 10.4892 37.2353C10.4427 37.8164 9.9314 38.2812 9.32709 38.2812Z" fill="#252E79"/>
<path d="M33.4998 38.2811C32.8954 38.2811 32.3841 37.8162 32.3376 37.1887C32.0587 33.2838 34.8478 30.2855 37.3116 27.6358C38.6132 26.2412 39.8451 24.9164 40.3564 23.7077C40.5889 23.1732 40.5656 22.5921 40.2867 22.0807C40.0078 21.5694 39.5197 21.1975 38.9386 21.0581L22.5756 18.1294V37.1189C22.5756 37.7697 22.0642 38.2811 21.4134 38.2811C20.7626 38.2811 20.2513 37.7697 20.2513 37.1189V16.7349C20.2513 16.3862 20.414 16.0608 20.6697 15.8516C20.9253 15.6424 21.274 15.5495 21.6226 15.596L39.357 18.8035H39.3802C40.6586 19.0592 41.7278 19.8727 42.3321 21.0116C42.9132 22.1272 42.9829 23.4521 42.4948 24.6142C41.844 26.1947 40.4726 27.6591 39.0083 29.2163C36.7538 31.6336 34.4527 34.1206 34.6387 37.026C34.6851 37.6768 34.197 38.2113 33.5695 38.2578C33.5462 38.2811 33.523 38.2811 33.4998 38.2811Z" fill="#252E79"/>
<path d="M26.5966 24.591C25.6901 24.591 24.9463 23.8473 24.9463 22.9408C24.9463 22.0343 25.6901 21.2905 26.5966 21.2905C27.503 21.2905 28.2468 22.0343 28.2468 22.9408C28.2468 23.8473 27.503 24.591 26.5966 24.591Z" fill="#252E79"/>
<path d="M33.3603 42C31.4776 42 30.4549 41.2098 29.6647 40.5822C28.9906 40.0476 28.4793 39.6757 27.3869 39.6757C26.2944 39.6757 25.8063 40.0709 25.109 40.5822C24.2955 41.2098 23.2961 42 21.4134 42C19.5308 42 18.5081 41.2098 17.7178 40.5822C17.0437 40.0476 16.5324 39.6757 15.44 39.6757C14.3476 39.6757 13.8595 40.0709 13.1622 40.5822C12.3487 41.2098 11.3492 42 9.46655 42C7.58387 42 6.56118 41.2098 5.77092 40.5822C5.09687 40.0476 4.58553 39.6757 3.49311 39.6757C2.84231 39.6757 2.33096 39.1644 2.33096 38.5136C2.33096 37.8628 2.84231 37.3514 3.49311 37.3514C5.37579 37.3514 6.39848 38.1417 7.18874 38.7693C7.86279 39.3038 8.37413 39.6757 9.46655 39.6757C10.559 39.6757 11.0471 39.2806 11.7444 38.7693C12.5579 38.1417 13.5573 37.3514 15.44 37.3514C17.3227 37.3514 18.3453 38.1417 19.1356 38.7693C19.8097 39.3038 20.321 39.6757 21.4134 39.6757C22.5058 39.6757 22.9939 39.2806 23.6912 38.7693C24.5047 38.1417 25.5042 37.3514 27.3869 37.3514C29.2695 37.3514 30.2922 38.1417 31.0825 38.7693C31.7565 39.3038 32.2679 39.6757 33.3603 39.6757C34.4527 39.6757 34.9408 39.2806 35.6381 38.7693C36.4516 38.1417 37.4511 37.3514 39.3337 37.3514C39.9845 37.3514 40.4959 37.8628 40.4959 38.5136C40.4959 39.1644 39.9845 39.6757 39.3337 39.6757C38.2413 39.6757 37.7532 40.0709 37.0559 40.5822C36.2657 41.233 35.2662 42 33.3603 42Z" fill="#252E79"/>
<path d="M39.3105 20.5235C38.6597 20.5235 38.1484 20.0122 38.1484 19.3614V14.5966C38.1484 13.3182 36.8235 12.2723 35.2197 12.2723H24.8766C24.2258 12.2723 23.7145 11.7609 23.7145 11.1101C23.7145 10.4593 24.2258 9.948 24.8766 9.948H35.2197C38.1251 9.948 40.4726 12.0399 40.4726 14.5966V19.3614C40.4726 20.0122 39.9381 20.5235 39.3105 20.5235Z" fill="#252E79"/>
<path d="M3.51636 20.756C2.86556 20.756 2.35422 20.2446 2.35422 19.5938V14.5966C2.35422 12.0399 4.70175 9.948 7.60712 9.948H11.8606C12.5114 9.948 13.0227 10.4593 13.0227 11.1101C13.0227 11.7609 12.5114 12.2723 11.8606 12.2723H7.60712C5.98011 12.2723 4.67851 13.3182 4.67851 14.5966V19.5938C4.67851 20.2446 4.14392 20.756 3.51636 20.756Z" fill="#252E79"/>
<path d="M8.28114 12.2955C7.63033 12.2955 7.11899 11.7841 7.11899 11.1333V7.48421C7.11899 5.43883 8.97842 3.78857 11.2795 3.78857H31.5241C33.8251 3.78857 35.6846 5.46207 35.6846 7.48421V10.9474C35.6846 11.5982 35.1732 12.1096 34.5224 12.1096C33.8716 12.1096 33.3603 11.5982 33.3603 10.9474V7.48421C33.3603 6.74043 32.5235 6.11287 31.5241 6.11287H11.2795C10.28 6.11287 9.44328 6.74043 9.44328 7.48421V11.1333C9.44328 11.7609 8.90869 12.2955 8.28114 12.2955Z" fill="#252E79"/>
<path d="M24.5512 2.32429H12.6973C12.0465 2.32429 11.5352 1.81295 11.5352 1.16215C11.5352 0.511344 12.0465 0 12.6973 0H24.5512C25.202 0 25.7134 0.511344 25.7134 1.16215C25.7134 1.81295 25.1788 2.32429 24.5512 2.32429Z" fill="#252E79"/>
</svg>
